<?xml version="1.0" encoding="UTF-8"?>
<svg version="1.1" xmlns="http://www.w3.org/2000/svg" width="32" height="32">
<path d="M0 0 C1.65 0.33 3.3 0.66 5 1 C5 1.66 5 2.32 5 3 C5.66 3 6.32 3 7 3 C7 3.99 7 4.98 7 6 C8.65 6.33 10.3 6.66 12 7 C11.02251899 10.15801556 9.99315998 13.01285923 8.4375 15.9375 C6.84544301 19.32927358 6.37102924 22.28970757 6 26 C3.625 26.625 3.625 26.625 1 27 C0.34 26.34 -0.32 25.68 -1 25 C-0.95875 23.989375 -0.9175 22.97875 -0.875 21.9375 C-1.01520085 17.52117312 -2.21560296 15.05048545 -4.109375 11.15625 C-5.26293248 8.36342664 -5.30602894 5.98378217 -5 3 C-3.35 2.67 -1.7 2.34 0 2 C0 1.34 0 0.68 0 0 Z " fill="#F2C5C9" transform="translate(13,2)"/>
<path d="M0 0 C1.65 0.33 3.3 0.66 5 1 C5 1.66 5 2.32 5 3 C5.66 3 6.32 3 7 3 C7 3.99 7 4.98 7 6 C8.65 6.33 10.3 6.66 12 7 C11.67 8.32 11.34 9.64 11 11 C9.68 11 8.36 11 7 11 C6.71125 11.94875 6.4225 12.8975 6.125 13.875 C5 17 5 17 3 19 C3 15.04 3 11.08 3 7 C0.36 7 -2.28 7 -5 7 C-5 5.68 -5 4.36 -5 3 C-3.35 2.67 -1.7 2.34 0 2 C0 1.34 0 0.68 0 0 Z " fill="#C91028" transform="translate(13,2)"/>
<path d="M0 0 C2.31 0.33 4.62 0.66 7 1 C7 4.96 7 8.92 7 13 C6.34 13 5.68 13 5 13 C4.16209211 11.21046815 3.32980604 9.41830305 2.5 7.625 C1.80390625 6.12839844 1.80390625 6.12839844 1.09375 4.6015625 C0 2 0 2 0 0 Z " fill="#FEFCFA" transform="translate(8,9)"/>
<path d="M0 0 C1.98 0 3.96 0 6 0 C6 1.65 6 3.3 6 5 C3.625 5.625 3.625 5.625 1 6 C0.34 5.34 -0.32 4.68 -1 4 C-0.625 1.875 -0.625 1.875 0 0 Z " fill="#C90E26" transform="translate(13,23)"/>
</svg>
